<svg xmlns="http://www.w3.org/2000/svg" width="15.335" height="13.538" viewBox="0 0 15.335 13.538">
  <g id="like" transform="translate(0 0)">
    <g id="Group_256" data-name="Group 256" transform="translate(0 0)">
      <path id="Path_533" data-name="Path 533" d="M11.262,30a3.631,3.631,0,0,0-2.268.784,5.165,5.165,0,0,0-1.327,1.6,5.165,5.165,0,0,0-1.327-1.6A3.631,3.631,0,0,0,4.073,30,4.163,4.163,0,0,0,0,34.418C0,37.139,2.185,39,5.492,41.82c.562.479,1.2,1.021,1.86,1.6a.479.479,0,0,0,.631,0c.662-.579,1.3-1.121,1.86-1.6,3.307-2.818,5.492-4.68,5.492-7.4A4.163,4.163,0,0,0,11.262,30Z" transform="translate(0 -30)" fill="#fff"/>
    </g>
  </g>
</svg>
