<svg xmlns="http://www.w3.org/2000/svg" width="18.135" height="9.03" viewBox="0 0 18.135 9.03">
  <g id="Group_257" data-name="Group 257" transform="translate(0 0)">
    <path id="Path_534" data-name="Path 534" d="M376.59,715.562a12.885,12.885,0,0,0-9.068,3.856c.149.251,3.166,5.142,9.011,5.173,5.918.032,8.991-4.95,9.124-5.173A12.885,12.885,0,0,0,376.59,715.562Zm0,7.84a3.325,3.325,0,1,1,3.325-3.326A3.326,3.326,0,0,1,376.59,723.4Z" transform="translate(-367.522 -715.562)" fill="#fff"/>
    <path id="Path_535" data-name="Path 535" d="M395.366,725.64a1.777,1.777,0,0,1,.033-.333,1.749,1.749,0,1,0,1.3,2.029A1.749,1.749,0,0,1,395.366,725.64Z" transform="translate(-385.894 -722.489)" fill="#fff"/>
  </g>
</svg>
